<svg width="75" height="75" viewBox="0 0 75 75" fill="none" xmlns="http://www.w3.org/2000/svg">
<path d="M13 21.92C15.96 21.92 18.5467 22.5067 20.76 23.68C22.9733 24.8533 24.68 26.5067 25.88 28.64C27.1067 30.7467 27.72 33.1867 27.72 35.96C27.72 38.7067 27.1067 41.1467 25.88 43.28C24.68 45.4133 22.96 47.0667 20.72 48.24C18.5067 49.4133 15.9333 50 13 50H2.48V21.92H13ZM12.56 44.08C15.1467 44.08 17.16 43.3733 18.6 41.96C20.04 40.5467 20.76 38.5467 20.76 35.96C20.76 33.3733 20.04 31.36 18.6 29.92C17.16 28.48 15.1467 27.76 12.56 27.76H9.32V44.08H12.56ZM42.0625 21.92C45.0225 21.92 47.6092 22.5067 49.8225 23.68C52.0358 24.8533 53.7425 26.5067 54.9425 28.64C56.1692 30.7467 56.7825 33.1867 56.7825 35.96C56.7825 38.7067 56.1692 41.1467 54.9425 43.28C53.7425 45.4133 52.0225 47.0667 49.7825 48.24C47.5692 49.4133 44.9958 50 42.0625 50H31.5425V21.92H42.0625ZM41.6225 44.08C44.2092 44.08 46.2225 43.3733 47.6625 41.96C49.1025 40.5467 49.8225 38.5467 49.8225 35.96C49.8225 33.3733 49.1025 31.36 47.6625 29.92C46.2225 28.48 44.2092 27.76 41.6225 27.76H38.3825V44.08H41.6225Z" fill="#FCFFFC"/>
<path d="M75 44.0851C75 47.9041 72.0899 51 68.5 51C64.9101 51 62 47.9041 62 44.0851C62 40.2661 64.9101 38 68.5 38C72.0899 38 75 40.2661 75 44.0851Z" fill="#2BA84A"/>
</svg>
